<svg xmlns="http://www.w3.org/2000/svg" viewBox="0 0 81.402 185.72">
    <defs>
        <clipPath id="a">
            <path d="M0 612h792V0H0v612z"/>
        </clipPath>
    </defs>
    <g clip-path="url(#a)" transform="matrix(1.25 0 0 -1.25 -264.9 362.11)">
        <path style="fill:#878786" d="M0 0c-5.421 0-9.861-4.232-10.215-9.565-1.871 1.984-4.515 3.232-7.452 3.232-5.651 0-10.25-4.598-10.25-10.25 0-4.259 2.611-7.916 6.315-9.462l.296 2.069c-2.726 1.348-4.611 4.152-4.611 7.393 0 4.549 3.702 8.25 8.25 8.25 4.549 0 8.25-3.701 8.25-8.25a8.224 8.224 0 0 0-2.49-5.896l.231-2.4a10.247 10.247 0 0 1 4.225 7.611 10.345 10.345 0 0 1 1.641-1.406l.249 2.348A8.225 8.225 0 0 0-8.25-10.25C-8.25-5.701-4.549-2 0-2s8.25-3.701 8.25-8.25c0-3.239-1.882-6.041-4.605-7.39l.069-2.153c3.819 1.491 6.536 5.202 6.536 9.543C10.25-4.598 5.652 0 0 0" transform="translate(246.92 288.08)"/>
        <path style="fill:#878786" d="M0 0c-.075-.942-.136-1.7-.169-2.21-.202-3.127-.815-12.642-2.755-17.126-2.168-5.016-.772-11.404-.711-11.674l.05-.174c.389-1.097.252-2.365-.399-3.667-1.011-2.021-4.207-5.882-14.26-9.024-12.06-3.769-15.61-.183-15.853.081-1.07 1.789-21.037 35.413-20.409 51.094l.002.059-.002.06c-.31 7.854-.702 20.134-.51 21.766.153 1.299.074 3.166-.019 5.327-.103 2.413-.378 8.821.706 9.44.001-.001.071.015.245-.035l.337-.079.307.04c.133.017 3.337.355 4.938-6.049l.101.025c-.101-9.674-.104-17.314-.104-18.162 0-4.508-2.296-7.344-2.319-7.372l2.3-1.926c.123.145 3.019 3.649 3.019 9.298 0 17.823.463 57.967 1.828 61.138.706 1.348 2.144 2.267 3.269 2.073 1.17-.191 2.053-1.63 2.421-3.946.453-2.846.862-10.788 1.295-19.197 1.325-25.753 1.7-25.857 3.277-26.29.689-.19 1.405.095 1.825.724.929 1.395 1.218 7.026 1.729 25.669.274 9.993.649 23.679 1.38 25.358.451.959 1.579 1.62 2.618 1.573 1.376-.082 2.083-1.356 2.435-2.409.548-1.645.812-9.172 1.092-17.142.692-19.712 1.412-33.92 4.383-37.221l2.229 2.008c-1.233 1.37-2.029 7.141-2.57 14.093 2.345-.41 3.855-2.61 4.781-6.873.64-2.943 4.879-14.461 5.058-14.95l2.816 1.037a419.79 419.79 0 0 0-3.466 9.767c3.454-.501 5.308-4.056 7.279-8.567.546-1.248 1.061-2.427 1.615-3.359C1.611 20.108.398 4.973 0 0m2.368 24.709c-.459.772-.938 1.869-1.445 3.029C-.94 32.003-3.693 38.3-10.105 38.174a23.098 23.098 0 0 0-.476 1.713c-1.291 5.938-3.957 9.046-7.931 9.297-.405 6.205-.642 12.939-.825 18.165-.358 10.173-.592 16.025-1.246 17.985-.897 2.692-2.757 4.316-5.103 4.454-2.264.133-4.536-1.219-5.51-3.29-.896-1.906-1.209-9.941-1.664-26.553-.089-3.254-.185-6.764-.297-10.081-.196 3.374-.378 6.905-.539 10.05-.437 8.491-.85 16.511-1.328 19.514-.801 5.033-3.413 6.193-4.899 6.436-2.403.392-5.099-1.137-6.411-3.641-1.218-2.326-1.753-21.376-1.987-37.86-2.038 2.392-4.336 2.56-5.234 2.512-1.234.258-2.106-.155-2.632-.569-2.12-1.672-2.107-5.806-1.845-11.922.083-1.948.162-3.788.037-4.85-.278-2.367.399-19.89.489-22.176-.625-16.943 20.004-51.317 20.883-52.774l.057-.087c.299-.426 2.429-3.099 8.694-3.099 2.686 0 6.134.493 10.522 1.864C-6.792-43.439-2.795-39.182-1.3-36.191c.99 1.982 1.194 4.076.577 5.91-.138.68-1.113 5.9.553 9.754C1.753-16.079 2.46-8.053 2.825-2.403c.032.499.092 1.241.166 2.163.876 10.938 1.406 21.531-.623 24.949" transform="translate(271.67 191.31)"/>
    </g>
</svg>
