<svg xmlns="http://www.w3.org/2000/svg" viewBox="0 0 80.797 180.31">
    <defs>
        <clipPath id="a">
            <path d="M0 612h792V0H0v612z"/>
        </clipPath>
    </defs>
    <g clip-path="url(#a)" transform="matrix(1.25 0 0 -1.25 -309.26 587.98)">
        <path style="fill:#fff" d="m0 0-18.75 37.25-2.75 17.5.25 18.5.75 8.75-.5 8 2.75 1 6.25-6 .75 30.75L-9 129l4 1.5 3-1.5 1.5-4.75L.25 99s8 4 11.5-6.5c0 0 8.25 3 11.5-10 0 0 6.5 1 10.5-8.75L37 63l-2.25-31-3-9 .5-8.25L31.5 9S15.25-6.25 0 0" transform="translate(272 330.75)"/>
        <path style="fill:#878786" d="M0 0c-5.652 0-10.25-4.598-10.25-10.25 0-3.841 2.127-7.191 5.262-8.946l.128 2.295c-2.051 1.503-3.39 3.921-3.39 6.651C-8.25-5.701-4.549-2 0-2s8.25-3.701 8.25-8.25a8.226 8.226 0 0 0-2.875-6.245l.132-2.386c2.847 1.823 4.743 5.007 4.743 8.631C10.25-4.598 5.652 0 0 0" transform="translate(266.25 468.75)"/>
        <path style="fill:#878786" d="M0 0c-.075-.942-.136-1.7-.169-2.209-.202-3.127-.815-12.642-2.755-17.127-2.168-5.015-.772-11.404-.711-11.674l.05-.173c.389-1.098.252-2.366-.399-3.667-1.011-2.022-4.207-5.883-14.26-9.025-12.061-3.768-15.611-.182-15.853.083-1.07 1.789-21.037 35.412-20.408 51.131.085 6.061.354 22.197.573 24.055.181 1.538-.068 3.638-.332 5.861-.252 2.124-.72 6.077-.165 6.716 0 0 .101.017.345-.053l.288-.052c.157-.016 3.773-.474 5.518-6.674-.049-3.081-.095-6.336-.138-9.779-.036-2.882-.062-5.009-.088-6.013-.154-5.854-2.135-9.625-2.155-9.662l1.321-.711 1.318-.714c.096.176 2.341 4.391 2.515 11.008.026 1.011.053 3.153.089 6.055.043 3.505.092 6.832.145 10.001l.054.014c-.015.063-.035.117-.052.179.454 27.12 1.24 41.845 2.336 43.779.918 1.345 2.407 2.042 3.71 1.734 1.13-.269 1.863-1.247 2.064-2.754.206-1.544.464-6.904.763-13.109.876-18.208 1.718-33.578 3.162-37.243l2.791 1.1c-.912 2.317-1.653 12.083-2.221 21.978 1.554.315 2.914.104 4.141-.639 2.749-1.665 4.453-5.878 5.13-9.266.688-3.439 1.469-12.615 1.476-12.708l2.99.253c-.032.384-.803 9.438-1.524 13.043-.088.44-.244 1.125-.477 1.94 5.81.123 7.262-5.721 7.415-6.428.64-2.943 4.879-14.461 5.058-14.95l2.816 1.037a421.452 421.452 0 0 0-3.466 9.767c3.453-.5 5.308-4.056 7.279-8.567.546-1.248 1.061-2.426 1.615-3.359C1.611 20.109.398 4.974 0 0m2.368 24.709c-.459.773-.938 1.869-1.445 3.029-1.863 4.266-4.615 10.563-11.028 10.436-.223.725-.391 1.32-.476 1.714-.794 3.653-4.09 9.471-11.385 8.716-1.013 2.362-2.592 4.918-5.003 6.378-1.762 1.068-3.731 1.421-5.863 1.08-.218 4.039-.408 7.975-.568 11.302-.314 6.532-.562 11.692-.785 13.361-.366 2.746-1.991 4.718-4.345 5.276-2.5.595-5.268-.597-6.881-2.962-1.428-2.094-2.251-13.479-2.754-39.42-2.145 2.597-4.529 3.122-5.219 3.217-1.443.373-2.377-.084-2.914-.541-1.869-1.592-1.441-5.207-.945-9.393.232-1.952.471-3.971.331-5.158-.281-2.39-.581-23.467-.592-24.324-.677-16.921 20.001-51.377 20.881-52.835l.057-.087c.299-.425 2.429-3.099 8.694-3.099 2.687 0 6.134.492 10.522 1.863C-6.792-43.439-2.795-39.182-1.3-36.191c.99 1.982 1.194 4.076.577 5.91-.138.68-1.113 5.901.553 9.755C1.753-16.078 2.46-8.053 2.825-2.403c.032.499.092 1.241.166 2.164.876 10.937 1.406 21.531-.623 24.948" transform="translate(306.67 376.31)"/>
    </g>
</svg>
